<mxfile host="app.diagrams.net" modified="2021-06-08T12:58:57.073Z" agent="5.0 (Macintosh)" etag="2r0IdBIsHXKvq3Suq721" version="14.7.6" type="github">
  <diagram id="6a731a19-8d31-9384-78a2-239565b7b9f0" name="Page-1">
    <mxGraphModel dx="3389" dy="1860" grid="1" gridSize="10" guides="1" tooltips="1" connect="1" arrows="1" fold="1" page="1" pageScale="1" pageWidth="1169" pageHeight="827" background="none" math="0" shadow="0">
      <root>
        <mxCell id="0" />
        <mxCell id="1" parent="0" />
        <mxCell id="dWxF3lAxFfpdKLdELATH-1862" value="" style="rounded=0;whiteSpace=wrap;html=1;" parent="1" vertex="1">
          <mxGeometry x="490" y="1980" width="730" height="670" as="geometry" />
        </mxCell>
        <mxCell id="dWxF3lAxFfpdKLdELATH-1847" value="" style="rounded=0;whiteSpace=wrap;html=1;" parent="1" vertex="1">
          <mxGeometry x="710" y="2210" width="340" height="210" as="geometry" />
        </mxCell>
        <mxCell id="dWxF3lAxFfpdKLdELATH-1786" value="" style="rounded=0;whiteSpace=wrap;html=1;" parent="1" vertex="1">
          <mxGeometry x="310" y="500" width="590" height="345" as="geometry" />
        </mxCell>
        <mxCell id="1749" value="&lt;font style=&quot;font-size: 18px&quot;&gt;1. Introdcuction&lt;/font&gt;" style="rounded=1;whiteSpace=wrap;html=1;shadow=0;labelBackgroundColor=none;strokeColor=none;strokeWidth=3;fillColor=#2F5B7C;fontFamily=Helvetica;fontSize=16;fontColor=#FFFFFF;align=center;fontStyle=1;spacing=5;arcSize=7;perimeterSpacing=2;" parent="1" vertex="1">
          <mxGeometry x="310" y="150" width="150" height="60" as="geometry" />
        </mxCell>
        <mxCell id="1753" value="&lt;font style=&quot;font-size: 18px&quot;&gt;4. Manufacturing&lt;/font&gt;" style="rounded=1;whiteSpace=wrap;html=1;shadow=0;labelBackgroundColor=none;strokeColor=none;strokeWidth=3;fillColor=#e85642;fontFamily=Helvetica;fontSize=14;fontColor=#FFFFFF;align=center;spacing=5;fontStyle=1;arcSize=7;perimeterSpacing=2;" parent="1" vertex="1">
          <mxGeometry x="450" y="360" width="160" height="60" as="geometry" />
        </mxCell>
        <mxCell id="1756" value="&lt;font style=&quot;font-size: 18px&quot;&gt;&lt;b&gt;3. Design&lt;/b&gt;&lt;/font&gt;" style="rounded=1;whiteSpace=wrap;html=1;shadow=0;labelBackgroundColor=none;strokeColor=none;strokeWidth=3;fillColor=#f08e81;fontFamily=Helvetica;fontSize=14;fontColor=#FFFFFF;align=center;spacing=5;fontStyle=0;arcSize=7;perimeterSpacing=2;" parent="1" vertex="1">
          <mxGeometry x="400" y="290" width="150" height="60" as="geometry" />
        </mxCell>
        <mxCell id="1760" value="&lt;font style=&quot;font-size: 18px&quot;&gt;5. Assembly&lt;/font&gt;" style="rounded=1;whiteSpace=wrap;html=1;shadow=0;labelBackgroundColor=none;strokeColor=none;strokeWidth=3;fillColor=#1699d3;fontFamily=Helvetica;fontSize=14;fontColor=#FFFFFF;align=center;spacing=5;fontStyle=1;arcSize=7;perimeterSpacing=2;" parent="1" vertex="1">
          <mxGeometry x="640" y="360" width="150" height="60" as="geometry" />
        </mxCell>
        <mxCell id="1764" value="&lt;font style=&quot;font-size: 18px&quot;&gt;&lt;b&gt;2. Specification&lt;/b&gt;&lt;/font&gt;" style="rounded=1;whiteSpace=wrap;html=1;shadow=0;labelBackgroundColor=none;strokeColor=none;strokeWidth=3;fillColor=#F08705;fontFamily=Helvetica;fontSize=14;fontColor=#FFFFFF;align=center;spacing=5;fontStyle=1;arcSize=7;perimeterSpacing=2;" parent="1" vertex="1">
          <mxGeometry x="350" y="220" width="150" height="60" as="geometry" />
        </mxCell>
        <mxCell id="1769" value="&lt;font style=&quot;font-size: 18px&quot;&gt;&lt;b&gt;8. Disposal&lt;/b&gt;&lt;/font&gt;" style="rounded=1;whiteSpace=wrap;html=1;shadow=0;labelBackgroundColor=none;strokeColor=none;strokeWidth=3;fillColor=#f5af58;fontFamily=Helvetica;fontSize=14;fontColor=#FFFFFF;align=center;spacing=5;arcSize=7;perimeterSpacing=2;" parent="1" vertex="1">
          <mxGeometry x="770" y="145" width="150" height="60" as="geometry" />
        </mxCell>
        <mxCell id="1771" value="&lt;font style=&quot;font-size: 18px&quot;&gt;6. Use&lt;/font&gt;" style="rounded=1;whiteSpace=wrap;html=1;shadow=0;labelBackgroundColor=none;strokeColor=none;strokeWidth=3;fillColor=#12aab5;fontFamily=Helvetica;fontSize=14;fontColor=#FFFFFF;align=center;spacing=5;fontStyle=1;arcSize=7;perimeterSpacing=2;" parent="1" vertex="1">
          <mxGeometry x="720" y="219.9999999999999" width="150" height="60" as="geometry" />
        </mxCell>
        <mxCell id="1772" value="&lt;font style=&quot;font-size: 18px&quot;&gt;&lt;b&gt;7. Maintenance&lt;/b&gt;&lt;/font&gt;" style="rounded=1;whiteSpace=wrap;html=1;shadow=0;labelBackgroundColor=none;strokeColor=none;strokeWidth=3;fillColor=#61c6ce;fontFamily=Helvetica;fontSize=14;fontColor=#FFFFFF;align=center;spacing=5;fontStyle=0;arcSize=7;perimeterSpacing=2;" parent="1" vertex="1">
          <mxGeometry x="680" y="290" width="150" height="60" as="geometry" />
        </mxCell>
        <mxCell id="dWxF3lAxFfpdKLdELATH-1780" value="&lt;font style=&quot;font-size: 18px&quot;&gt;CAD file&lt;/font&gt;" style="rounded=1;whiteSpace=wrap;html=1;shadow=0;labelBackgroundColor=none;strokeColor=none;strokeWidth=3;fillColor=#e85642;fontFamily=Helvetica;fontSize=14;fontColor=#FFFFFF;align=center;spacing=5;fontStyle=1;arcSize=7;perimeterSpacing=2;" parent="1" vertex="1">
          <mxGeometry x="330" y="525" width="160" height="60" as="geometry" />
        </mxCell>
        <mxCell id="dWxF3lAxFfpdKLdELATH-1782" value="&lt;font style=&quot;font-size: 18px&quot;&gt;FEA&lt;/font&gt;" style="rounded=1;whiteSpace=wrap;html=1;shadow=0;labelBackgroundColor=none;strokeColor=none;strokeWidth=3;fillColor=#2F5B7C;fontFamily=Helvetica;fontSize=16;fontColor=#FFFFFF;align=center;fontStyle=1;spacing=5;arcSize=7;perimeterSpacing=2;" parent="1" vertex="1">
          <mxGeometry x="550" y="515" width="150" height="60" as="geometry" />
        </mxCell>
        <mxCell id="dWxF3lAxFfpdKLdELATH-1783" value="&lt;font style=&quot;font-size: 18px&quot;&gt;Arduino code&lt;/font&gt;" style="rounded=1;whiteSpace=wrap;html=1;shadow=0;labelBackgroundColor=none;strokeColor=none;strokeWidth=3;fillColor=#F08705;fontFamily=Helvetica;fontSize=14;fontColor=#FFFFFF;align=center;spacing=5;fontStyle=1;arcSize=7;perimeterSpacing=2;" parent="1" vertex="1">
          <mxGeometry x="680" y="575" width="150" height="60" as="geometry" />
        </mxCell>
        <mxCell id="dWxF3lAxFfpdKLdELATH-1784" value="&lt;b&gt;&lt;font style=&quot;font-size: 18px&quot;&gt;BOM&lt;/font&gt;&lt;/b&gt;" style="rounded=1;whiteSpace=wrap;html=1;shadow=0;labelBackgroundColor=none;strokeColor=none;strokeWidth=3;fillColor=#f5af58;fontFamily=Helvetica;fontSize=14;fontColor=#FFFFFF;align=center;spacing=5;arcSize=7;perimeterSpacing=2;" parent="1" vertex="1">
          <mxGeometry x="360" y="635" width="150" height="60" as="geometry" />
        </mxCell>
        <mxCell id="dWxF3lAxFfpdKLdELATH-1785" value="&lt;b&gt;&lt;font style=&quot;font-size: 18px&quot;&gt;Schematic&lt;/font&gt;&lt;/b&gt;" style="rounded=1;whiteSpace=wrap;html=1;shadow=0;labelBackgroundColor=none;strokeColor=none;strokeWidth=3;fillColor=#61c6ce;fontFamily=Helvetica;fontSize=14;fontColor=#FFFFFF;align=center;spacing=5;fontStyle=0;arcSize=7;perimeterSpacing=2;" parent="1" vertex="1">
          <mxGeometry x="380" y="715" width="150" height="60" as="geometry" />
        </mxCell>
        <mxCell id="dWxF3lAxFfpdKLdELATH-1787" value="&lt;font style=&quot;font-size: 18px&quot;&gt;Assembly&lt;/font&gt;" style="rounded=1;whiteSpace=wrap;html=1;shadow=0;labelBackgroundColor=none;strokeColor=none;strokeWidth=3;fillColor=#1699d3;fontFamily=Helvetica;fontSize=14;fontColor=#FFFFFF;align=center;spacing=5;fontStyle=1;arcSize=7;perimeterSpacing=2;" parent="1" vertex="1">
          <mxGeometry x="440" y="575" width="150" height="60" as="geometry" />
        </mxCell>
        <mxCell id="dWxF3lAxFfpdKLdELATH-1788" value="&lt;font style=&quot;font-size: 18px&quot;&gt;&lt;b&gt;Maintenance&lt;/b&gt;&lt;/font&gt;" style="rounded=1;whiteSpace=wrap;html=1;shadow=0;labelBackgroundColor=none;strokeColor=none;strokeWidth=3;fillColor=#61c6ce;fontFamily=Helvetica;fontSize=14;fontColor=#FFFFFF;align=center;spacing=5;fontStyle=0;arcSize=7;perimeterSpacing=2;" parent="1" vertex="1">
          <mxGeometry x="720" y="705" width="150" height="60" as="geometry" />
        </mxCell>
        <mxCell id="dWxF3lAxFfpdKLdELATH-1789" value="&lt;b&gt;&lt;font style=&quot;font-size: 18px&quot;&gt;PCB&lt;/font&gt;&lt;/b&gt;" style="rounded=1;whiteSpace=wrap;html=1;shadow=0;labelBackgroundColor=none;strokeColor=none;strokeWidth=3;fillColor=#f08e81;fontFamily=Helvetica;fontSize=14;fontColor=#FFFFFF;align=center;spacing=5;fontStyle=0;arcSize=7;perimeterSpacing=2;" parent="1" vertex="1">
          <mxGeometry x="550" y="625" width="150" height="60" as="geometry" />
        </mxCell>
        <mxCell id="dWxF3lAxFfpdKLdELATH-1790" value="&lt;font style=&quot;font-size: 18px&quot;&gt;User guide&lt;br&gt;&lt;/font&gt;" style="rounded=1;whiteSpace=wrap;html=1;shadow=0;labelBackgroundColor=none;strokeColor=none;strokeWidth=3;fillColor=#12aab5;fontFamily=Helvetica;fontSize=14;fontColor=#FFFFFF;align=center;spacing=5;fontStyle=1;arcSize=7;perimeterSpacing=2;" parent="1" vertex="1">
          <mxGeometry x="580" y="680" width="150" height="70" as="geometry" />
        </mxCell>
        <mxCell id="dWxF3lAxFfpdKLdELATH-1791" value="&lt;b&gt;&lt;font style=&quot;font-size: 18px&quot;&gt;Functional model&lt;/font&gt;&lt;/b&gt;" style="rounded=1;whiteSpace=wrap;html=1;shadow=0;labelBackgroundColor=none;strokeColor=none;strokeWidth=3;fillColor=#f08e81;fontFamily=Helvetica;fontSize=14;fontColor=#FFFFFF;align=center;spacing=5;fontStyle=0;arcSize=7;perimeterSpacing=2;" parent="1" vertex="1">
          <mxGeometry x="470" y="765" width="150" height="60" as="geometry" />
        </mxCell>
        <mxCell id="dWxF3lAxFfpdKLdELATH-1793" value="" style="rounded=0;whiteSpace=wrap;html=1;" parent="1" vertex="1">
          <mxGeometry x="290" y="880" width="590" height="345" as="geometry" />
        </mxCell>
        <mxCell id="dWxF3lAxFfpdKLdELATH-1794" value="&lt;font style=&quot;font-size: 18px&quot;&gt;CAD file&lt;/font&gt;" style="rounded=1;whiteSpace=wrap;html=1;shadow=0;labelBackgroundColor=none;strokeColor=none;strokeWidth=3;fillColor=#e85642;fontFamily=Helvetica;fontSize=14;fontColor=#FFFFFF;align=center;spacing=5;fontStyle=1;arcSize=7;perimeterSpacing=2;" parent="1" vertex="1">
          <mxGeometry x="310" y="995" width="150" height="60" as="geometry" />
        </mxCell>
        <mxCell id="dWxF3lAxFfpdKLdELATH-1795" value="&lt;font style=&quot;font-size: 18px&quot;&gt;FEA&lt;/font&gt;" style="rounded=1;whiteSpace=wrap;html=1;shadow=0;labelBackgroundColor=none;strokeColor=none;strokeWidth=3;fillColor=#2F5B7C;fontFamily=Helvetica;fontSize=16;fontColor=#FFFFFF;align=center;fontStyle=1;spacing=5;arcSize=7;perimeterSpacing=2;" parent="1" vertex="1">
          <mxGeometry x="520" y="995" width="150" height="60" as="geometry" />
        </mxCell>
        <mxCell id="dWxF3lAxFfpdKLdELATH-1796" value="&lt;font style=&quot;font-size: 18px&quot;&gt;Arduino code&lt;/font&gt;" style="rounded=1;whiteSpace=wrap;html=1;shadow=0;labelBackgroundColor=none;strokeColor=none;strokeWidth=3;fillColor=#F08705;fontFamily=Helvetica;fontSize=14;fontColor=#FFFFFF;align=center;spacing=5;fontStyle=1;arcSize=7;perimeterSpacing=2;" parent="1" vertex="1">
          <mxGeometry x="520" y="1075" width="150" height="60" as="geometry" />
        </mxCell>
        <mxCell id="dWxF3lAxFfpdKLdELATH-1797" value="&lt;b&gt;&lt;font style=&quot;font-size: 18px&quot;&gt;BOM&lt;/font&gt;&lt;/b&gt;" style="rounded=1;whiteSpace=wrap;html=1;shadow=0;labelBackgroundColor=none;strokeColor=none;strokeWidth=3;fillColor=#f5af58;fontFamily=Helvetica;fontSize=14;fontColor=#FFFFFF;align=center;spacing=5;arcSize=7;perimeterSpacing=2;" parent="1" vertex="1">
          <mxGeometry x="310" y="1075" width="150" height="60" as="geometry" />
        </mxCell>
        <mxCell id="dWxF3lAxFfpdKLdELATH-1798" value="&lt;b&gt;&lt;font style=&quot;font-size: 18px&quot;&gt;Schematic&lt;/font&gt;&lt;/b&gt;" style="rounded=1;whiteSpace=wrap;html=1;shadow=0;labelBackgroundColor=none;strokeColor=none;strokeWidth=3;fillColor=#61c6ce;fontFamily=Helvetica;fontSize=14;fontColor=#FFFFFF;align=center;spacing=5;fontStyle=0;arcSize=7;perimeterSpacing=2;" parent="1" vertex="1">
          <mxGeometry x="310" y="1152.5" width="150" height="60" as="geometry" />
        </mxCell>
        <mxCell id="dWxF3lAxFfpdKLdELATH-1799" value="&lt;font style=&quot;font-size: 18px&quot;&gt;Assembly&lt;/font&gt;" style="rounded=1;whiteSpace=wrap;html=1;shadow=0;labelBackgroundColor=none;strokeColor=none;strokeWidth=3;fillColor=#1699d3;fontFamily=Helvetica;fontSize=14;fontColor=#FFFFFF;align=center;spacing=5;fontStyle=1;arcSize=7;perimeterSpacing=2;" parent="1" vertex="1">
          <mxGeometry x="700" y="1075" width="150" height="60" as="geometry" />
        </mxCell>
        <mxCell id="dWxF3lAxFfpdKLdELATH-1801" value="&lt;b&gt;&lt;font style=&quot;font-size: 18px&quot;&gt;PCB&lt;/font&gt;&lt;/b&gt;" style="rounded=1;whiteSpace=wrap;html=1;shadow=0;labelBackgroundColor=none;strokeColor=none;strokeWidth=3;fillColor=#f08e81;fontFamily=Helvetica;fontSize=14;fontColor=#FFFFFF;align=center;spacing=5;fontStyle=0;arcSize=7;perimeterSpacing=2;" parent="1" vertex="1">
          <mxGeometry x="700" y="995" width="150" height="60" as="geometry" />
        </mxCell>
        <mxCell id="dWxF3lAxFfpdKLdELATH-1802" value="&lt;font style=&quot;font-size: 18px&quot;&gt;User guide&lt;br&gt;&lt;/font&gt;" style="rounded=1;whiteSpace=wrap;html=1;shadow=0;labelBackgroundColor=none;strokeColor=none;strokeWidth=3;fillColor=#12aab5;fontFamily=Helvetica;fontSize=14;fontColor=#FFFFFF;align=center;spacing=5;fontStyle=1;arcSize=7;perimeterSpacing=2;" parent="1" vertex="1">
          <mxGeometry x="520" y="1152.5" width="150" height="60" as="geometry" />
        </mxCell>
        <mxCell id="dWxF3lAxFfpdKLdELATH-1803" value="&lt;b&gt;&lt;font style=&quot;font-size: 18px&quot;&gt;Functional model&lt;/font&gt;&lt;/b&gt;" style="rounded=1;whiteSpace=wrap;html=1;shadow=0;labelBackgroundColor=none;strokeColor=none;strokeWidth=3;fillColor=#f08e81;fontFamily=Helvetica;fontSize=14;fontColor=#FFFFFF;align=center;spacing=5;fontStyle=0;arcSize=7;perimeterSpacing=2;" parent="1" vertex="1">
          <mxGeometry x="700" y="1155" width="150" height="60" as="geometry" />
        </mxCell>
        <mxCell id="dWxF3lAxFfpdKLdELATH-1820" value="" style="rounded=0;whiteSpace=wrap;html=1;" parent="1" vertex="1">
          <mxGeometry x="500" y="1990" width="340" height="210" as="geometry" />
        </mxCell>
        <mxCell id="dWxF3lAxFfpdKLdELATH-1821" value="&lt;font style=&quot;font-size: 18px&quot;&gt;CAD file&lt;/font&gt;" style="rounded=1;whiteSpace=wrap;html=1;shadow=0;labelBackgroundColor=none;strokeColor=none;strokeWidth=3;fillColor=#e85642;fontFamily=Helvetica;fontSize=14;fontColor=#FFFFFF;align=center;spacing=5;fontStyle=1;arcSize=7;perimeterSpacing=2;" parent="1" vertex="1">
          <mxGeometry x="560" y="2050" width="160" height="60" as="geometry" />
        </mxCell>
        <mxCell id="dWxF3lAxFfpdKLdELATH-1838" value="&lt;b&gt;&lt;font style=&quot;font-size: 18px&quot;&gt;BOM&lt;/font&gt;&lt;/b&gt;" style="rounded=1;whiteSpace=wrap;html=1;shadow=0;labelBackgroundColor=none;strokeColor=none;strokeWidth=3;fillColor=#f5af58;fontFamily=Helvetica;fontSize=14;fontColor=#FFFFFF;align=center;spacing=5;arcSize=7;perimeterSpacing=2;" parent="1" vertex="1">
          <mxGeometry x="720" y="2360" width="150" height="60" as="geometry" />
        </mxCell>
        <mxCell id="dWxF3lAxFfpdKLdELATH-1840" value="&lt;font style=&quot;font-size: 18px&quot;&gt;Assembly&lt;/font&gt;" style="rounded=1;whiteSpace=wrap;html=1;shadow=0;labelBackgroundColor=none;strokeColor=none;strokeWidth=3;fillColor=#1699d3;fontFamily=Helvetica;fontSize=14;fontColor=#FFFFFF;align=center;spacing=5;fontStyle=1;arcSize=7;perimeterSpacing=2;" parent="1" vertex="1">
          <mxGeometry x="810" y="2285" width="150" height="60" as="geometry" />
        </mxCell>
        <mxCell id="dWxF3lAxFfpdKLdELATH-1845" value="" style="rounded=0;whiteSpace=wrap;html=1;" parent="1" vertex="1">
          <mxGeometry x="870" y="1990" width="340" height="210" as="geometry" />
        </mxCell>
        <mxCell id="dWxF3lAxFfpdKLdELATH-1846" value="&lt;font style=&quot;font-size: 18px&quot;&gt;CAD file&lt;/font&gt;" style="rounded=1;whiteSpace=wrap;html=1;shadow=0;labelBackgroundColor=none;strokeColor=none;strokeWidth=3;fillColor=#e85642;fontFamily=Helvetica;fontSize=14;fontColor=#FFFFFF;align=center;spacing=5;fontStyle=1;arcSize=7;perimeterSpacing=2;" parent="1" vertex="1">
          <mxGeometry x="890" y="2008" width="160" height="60" as="geometry" />
        </mxCell>
        <mxCell id="dWxF3lAxFfpdKLdELATH-1836" value="&lt;font style=&quot;font-size: 18px&quot;&gt;FEA&lt;/font&gt;" style="rounded=1;whiteSpace=wrap;html=1;shadow=0;labelBackgroundColor=none;strokeColor=none;strokeWidth=3;fillColor=#2F5B7C;fontFamily=Helvetica;fontSize=16;fontColor=#FFFFFF;align=center;fontStyle=1;spacing=5;arcSize=7;perimeterSpacing=2;" parent="1" vertex="1">
          <mxGeometry x="990" y="2090" width="150" height="60" as="geometry" />
        </mxCell>
        <mxCell id="dWxF3lAxFfpdKLdELATH-1848" value="&lt;font style=&quot;font-size: 18px&quot;&gt;CAD file&lt;/font&gt;" style="rounded=1;whiteSpace=wrap;html=1;shadow=0;labelBackgroundColor=none;strokeColor=none;strokeWidth=3;fillColor=#e85642;fontFamily=Helvetica;fontSize=14;fontColor=#FFFFFF;align=center;spacing=5;fontStyle=1;arcSize=7;perimeterSpacing=2;" parent="1" vertex="1">
          <mxGeometry x="720" y="2228" width="160" height="60" as="geometry" />
        </mxCell>
        <mxCell id="dWxF3lAxFfpdKLdELATH-1849" value="&lt;font style=&quot;font-size: 18px&quot;&gt;FEA&lt;/font&gt;" style="rounded=1;whiteSpace=wrap;html=1;shadow=0;labelBackgroundColor=none;strokeColor=none;strokeWidth=3;fillColor=#2F5B7C;fontFamily=Helvetica;fontSize=16;fontColor=#FFFFFF;align=center;fontStyle=1;spacing=5;arcSize=7;perimeterSpacing=2;" parent="1" vertex="1">
          <mxGeometry x="890" y="2240" width="150" height="60" as="geometry" />
        </mxCell>
        <mxCell id="dWxF3lAxFfpdKLdELATH-1842" value="&lt;b&gt;&lt;font style=&quot;font-size: 18px&quot;&gt;PCB&lt;/font&gt;&lt;/b&gt;" style="rounded=1;whiteSpace=wrap;html=1;shadow=0;labelBackgroundColor=none;strokeColor=none;strokeWidth=3;fillColor=#f08e81;fontFamily=Helvetica;fontSize=14;fontColor=#FFFFFF;align=center;spacing=5;fontStyle=0;arcSize=7;perimeterSpacing=2;" parent="1" vertex="1">
          <mxGeometry x="890" y="2340" width="150" height="60" as="geometry" />
        </mxCell>
        <mxCell id="dWxF3lAxFfpdKLdELATH-1850" value="" style="rounded=0;whiteSpace=wrap;html=1;" parent="1" vertex="1">
          <mxGeometry x="500" y="2430" width="340" height="210" as="geometry" />
        </mxCell>
        <mxCell id="dWxF3lAxFfpdKLdELATH-1851" value="&lt;b&gt;&lt;font style=&quot;font-size: 18px&quot;&gt;BOM&lt;/font&gt;&lt;/b&gt;" style="rounded=1;whiteSpace=wrap;html=1;shadow=0;labelBackgroundColor=none;strokeColor=none;strokeWidth=3;fillColor=#f5af58;fontFamily=Helvetica;fontSize=14;fontColor=#FFFFFF;align=center;spacing=5;arcSize=7;perimeterSpacing=2;" parent="1" vertex="1">
          <mxGeometry x="560" y="2540" width="150" height="60" as="geometry" />
        </mxCell>
        <mxCell id="dWxF3lAxFfpdKLdELATH-1853" value="&lt;font style=&quot;font-size: 18px&quot;&gt;CAD file&lt;/font&gt;" style="rounded=1;whiteSpace=wrap;html=1;shadow=0;labelBackgroundColor=none;strokeColor=none;strokeWidth=3;fillColor=#e85642;fontFamily=Helvetica;fontSize=14;fontColor=#FFFFFF;align=center;spacing=5;fontStyle=1;arcSize=7;perimeterSpacing=2;" parent="1" vertex="1">
          <mxGeometry x="510" y="2448" width="160" height="60" as="geometry" />
        </mxCell>
        <mxCell id="dWxF3lAxFfpdKLdELATH-1854" value="&lt;font style=&quot;font-size: 18px&quot;&gt;FEA&lt;/font&gt;" style="rounded=1;whiteSpace=wrap;html=1;shadow=0;labelBackgroundColor=none;strokeColor=none;strokeWidth=3;fillColor=#2F5B7C;fontFamily=Helvetica;fontSize=16;fontColor=#FFFFFF;align=center;fontStyle=1;spacing=5;arcSize=7;perimeterSpacing=2;" parent="1" vertex="1">
          <mxGeometry x="680" y="2490" width="150" height="60" as="geometry" />
        </mxCell>
        <mxCell id="dWxF3lAxFfpdKLdELATH-1856" value="" style="rounded=0;whiteSpace=wrap;html=1;" parent="1" vertex="1">
          <mxGeometry x="870" y="2430" width="340" height="210" as="geometry" />
        </mxCell>
        <mxCell id="dWxF3lAxFfpdKLdELATH-1857" value="&lt;b&gt;&lt;font style=&quot;font-size: 18px&quot;&gt;BOM&lt;/font&gt;&lt;/b&gt;" style="rounded=1;whiteSpace=wrap;html=1;shadow=0;labelBackgroundColor=none;strokeColor=none;strokeWidth=3;fillColor=#f5af58;fontFamily=Helvetica;fontSize=14;fontColor=#FFFFFF;align=center;spacing=5;arcSize=7;perimeterSpacing=2;" parent="1" vertex="1">
          <mxGeometry x="880" y="2530" width="150" height="60" as="geometry" />
        </mxCell>
        <mxCell id="dWxF3lAxFfpdKLdELATH-1859" value="&lt;font style=&quot;font-size: 18px&quot;&gt;CAD file&lt;/font&gt;" style="rounded=1;whiteSpace=wrap;html=1;shadow=0;labelBackgroundColor=none;strokeColor=none;strokeWidth=3;fillColor=#e85642;fontFamily=Helvetica;fontSize=14;fontColor=#FFFFFF;align=center;spacing=5;fontStyle=1;arcSize=7;perimeterSpacing=2;" parent="1" vertex="1">
          <mxGeometry x="880" y="2448" width="160" height="60" as="geometry" />
        </mxCell>
        <mxCell id="dWxF3lAxFfpdKLdELATH-1860" value="&lt;font style=&quot;font-size: 18px&quot;&gt;FEA&lt;/font&gt;" style="rounded=1;whiteSpace=wrap;html=1;shadow=0;labelBackgroundColor=none;strokeColor=none;strokeWidth=3;fillColor=#2F5B7C;fontFamily=Helvetica;fontSize=16;fontColor=#FFFFFF;align=center;fontStyle=1;spacing=5;arcSize=7;perimeterSpacing=2;" parent="1" vertex="1">
          <mxGeometry x="1030" y="2470" width="150" height="60" as="geometry" />
        </mxCell>
        <mxCell id="dWxF3lAxFfpdKLdELATH-1861" value="&lt;b&gt;&lt;font style=&quot;font-size: 18px&quot;&gt;PCB&lt;/font&gt;&lt;/b&gt;" style="rounded=1;whiteSpace=wrap;html=1;shadow=0;labelBackgroundColor=none;strokeColor=none;strokeWidth=3;fillColor=#f08e81;fontFamily=Helvetica;fontSize=14;fontColor=#FFFFFF;align=center;spacing=5;fontStyle=0;arcSize=7;perimeterSpacing=2;" parent="1" vertex="1">
          <mxGeometry x="1000" y="2580" width="150" height="60" as="geometry" />
        </mxCell>
      </root>
    </mxGraphModel>
  </diagram>
</mxfile>
